<svg xmlns="http://www.w3.org/2000/svg" width="1210" height="400" viewBox="0 0 1210 400" fill="none"><path d="M1165 396C1166.1 396 1167 395.105 1167 394C1167 392.895 1166.1 392 1165 392C1163.9 392 1163 392.895 1163 394C1163 395.105 1163.9 396 1165 396Z" fill="#244395"></path><path d="M399 4C400.105 4 401 3.10457 401 2C401 0.895427 400.105 0 399 0C397.895 0 397 0.895427 397 2C397 3.10457 397.895 4 399 4Z" fill="#244395"></path><path d="M621 218C622.105 218 623 217.105 623 216C623 214.895 622.105 214 621 214C619.895 214 619 214.895 619 216C619 217.105 619.895 218 621 218Z" fill="#244395"></path><path d="M415 204C416.105 204 417 203.105 417 202C417 200.895 416.105 200 415 200C413.895 200 413 200.895 413 202C413 203.105 413.895 204 415 204Z" fill="#244395"></path><path d="M798 271C799.104 271 800 270.105 800 269C800 267.895 799.104 267 798 267C796.895 267 796 267.895 796 269C796 270.105 796.895 271 798 271Z" fill="#244395"></path><path d="M904 214C905.105 214 906 213.105 906 212C906 210.895 905.105 210 904 210C902.895 210 902 210.895 902 212C902 213.105 902.895 214 904 214Z" fill="#244395"></path><path d="M946.717 309.212C947.822 309.212 948.717 308.316 948.717 307.212C948.717 306.107 947.822 305.212 946.717 305.212C945.612 305.212 944.717 306.107 944.717 307.212C944.717 308.316 945.612 309.212 946.717 309.212Z" fill="#244395"></path><path d="M44 56C45.1046 56 46 55.1046 46 54C46 52.8954 45.1046 52 44 52C42.8954 52 42 52.8954 42 54C42 55.1046 42.8954 56 44 56Z" fill="#244395"></path><path d="M754 79C755.105 79 756 78.1046 756 77C756 75.8954 755.105 75 754 75C752.895 75 752 75.8954 752 77C752 78.1046 752.895 79 754 79Z" fill="#244395"></path><path d="M13 346C14.1046 346 15 345.105 15 344C15 342.895 14.1046 342 13 342C11.8954 342 11 342.895 11 344C11 345.105 11.8954 346 13 346Z" fill="#244395"></path><path d="M1165 115C1166.1 115 1167 114.105 1167 113C1167 111.895 1166.1 111 1165 111C1163.9 111 1163 111.895 1163 113C1163 114.105 1163.9 115 1165 115Z" fill="#244395"></path><path d="M233 313C234.105 313 235 312.105 235 311C235 309.895 234.105 309 233 309C231.895 309 231 309.895 231 311C231 312.105 231.895 313 233 313Z" fill="#FBB924"></path><path d="M1073 56C1074.1 56 1075 55.1046 1075 54C1075 52.8955 1074.1 52 1073 52C1071.9 52 1071 52.8955 1071 54C1071 55.1046 1071.9 56 1073 56Z" fill="#FBB924"></path><path d="M135 200C136.104 200 137 199.105 137 198C137 196.895 136.104 196 135 196C133.895 196 133 196.895 133 198C133 199.105 133.895 200 135 200Z" fill="#FBB924"></path><path d="M689 283C690.104 283 691 282.105 691 281C691 279.895 690.104 279 689 279C687.895 279 687 279.895 687 281C687 282.105 687.895 283 689 283Z" fill="#FBB924"></path><path d="M1040 378C1041.1 378 1042 377.105 1042 376C1042 374.895 1041.1 374 1040 374C1038.9 374 1038 374.895 1038 376C1038 377.105 1038.9 378 1040 378Z" fill="#FBB924"></path><path d="M1169 253C1170.1 253 1171 252.105 1171 251C1171 249.895 1170.1 249 1169 249C1167.9 249 1167 249.895 1167 251C1167 252.105 1167.9 253 1169 253Z" fill="#FBB924"></path><path d="M314 243C315.105 243 316 242.105 316 241C316 239.895 315.105 239 314 239C312.895 239 312 239.895 312 241C312 242.105 312.895 243 314 243Z" fill="#FBB924"></path><path d="M865 149C866.105 149 867 148.105 867 147C867 145.895 866.105 145 865 145C863.895 145 863 145.895 863 147C863 148.105 863.895 149 865 149Z" fill="#FBB924"></path><path d="M104 400C105.105 400 106 399.105 106 398C106 396.895 105.105 396 104 396C102.895 396 102 396.895 102 398C102 399.105 102.895 400 104 400Z" fill="#FBB924"></path><path d="M507 149C508.105 149 509 148.105 509 147C509 145.895 508.105 145 507 145C505.895 145 505 145.895 505 147C505 148.105 505.895 149 507 149Z" fill="#FBB924"></path><path d="M224 39C225.105 39 226 38.1046 226 37C226 35.8954 225.105 35 224 35C222.895 35 222 35.8954 222 37C222 38.1046 222.895 39 224 39Z" fill="#FBB924"></path><path d="M403 111C404.105 111 405 110.105 405 109C405 107.895 404.105 107 403 107C401.895 107 401 107.895 401 109C401 110.105 401.895 111 403 111Z" fill="#FBB924"></path><path d="M1013 267C1014.1 267 1015 266.105 1015 265C1015 263.895 1014.1 263 1013 263C1011.9 263 1011 263.895 1011 265C1011 266.105 1011.9 267 1013 267Z" fill="#FBB924"></path><path d="M844 37C845.105 37 846 36.1046 846 35C846 33.8954 845.105 33 844 33C842.895 33 842 33.8954 842 35C842 36.1046 842.895 37 844 37Z" fill="#FBB924"></path><path d="M609 75C610.105 75 611 74.1046 611 73C611 71.8954 610.105 71 609 71C607.895 71 607 71.8954 607 73C607 74.1046 607.895 75 609 75Z" fill="#24A9E1"></path><path d="M254 172C255.105 172 256 171.105 256 170C256 168.895 255.105 168 254 168C252.895 168 252 168.895 252 170C252 171.105 252.895 172 254 172Z" fill="#24A9E1"></path><path d="M1165 26C1166.1 26 1167 25.1046 1167 24C1167 22.8955 1166.1 22 1165 22C1163.9 22 1163 22.8955 1163 24C1163 25.1046 1163.9 26 1165 26Z" fill="#24A9E1"></path><path d="M1056 328C1057.1 328 1058 327.105 1058 326C1058 324.895 1057.1 324 1056 324C1054.9 324 1054 324.895 1054 326C1054 327.105 1054.9 328 1056 328Z" fill="#24A9E1"></path><path d="M68 271C69.1046 271 70 270.105 70 269C70 267.895 69.1046 267 68 267C66.8954 267 66 267.895 66 269C66 270.105 66.8954 271 68 271Z" fill="#24A9E1"></path><path d="M943 10C944.105 10 945 9.10457 945 8C945 6.89543 944.105 6 943 6C941.895 6 941 6.89543 941 8C941 9.10457 941.895 10 943 10Z" fill="#24A9E1"></path><path d="M302 73C303.105 73 304 72.1046 304 71C304 69.8954 303.105 69 302 69C300.895 69 300 69.8954 300 71C300 72.1046 300.895 73 302 73Z" fill="#24A9E1"></path><path d="M139 300C140.105 300 141 299.105 141 298C141 296.895 140.105 296 139 296C137.895 296 137 296.895 137 298C137 299.105 137.895 300 139 300Z" fill="#244395"></path><path d="M2.00001 174C3.10458 174 4 173.105 4 172C4 170.895 3.10458 170 2.00001 170C0.895442 170 0 170.895 0 172C0 173.105 0.895442 174 2.00001 174Z" fill="#24A9E1"></path><path d="M1208 188C1209.1 188 1210 187.105 1210 186C1210 184.895 1209.1 184 1208 184C1206.9 184 1206 184.895 1206 186C1206 187.105 1206.9 188 1208 188Z" fill="#24A9E1"></path><path d="M991 158C992.105 158 993 157.105 993 156C993 154.895 992.105 154 991 154C989.895 154 989 154.895 989 156C989 157.105 989.895 158 991 158Z" fill="#24A9E1"></path><path d="M151 99C152.105 99 153 98.1046 153 97C153 95.8954 152.105 95 151 95C149.895 95 149 95.8954 149 97C149 98.1046 149.895 99 151 99Z" fill="#24A9E1"></path><path d="M813 350C814.104 350 815 349.105 815 348C815 346.895 814.104 346 813 346C811.895 346 811 346.895 811 348C811 349.105 811.895 350 813 350Z" fill="#24A9E1"></path><path d="M740 176C741.105 176 742 175.105 742 174C742 172.895 741.105 172 740 172C738.895 172 738 172.895 738 174C738 175.105 738.895 176 740 176Z" fill="#24A9E1"></path><path d="M1083 207C1084.1 207 1085 206.105 1085 205C1085 203.895 1084.1 203 1083 203C1081.9 203 1081 203.895 1081 205C1081 206.105 1081.9 207 1083 207Z" fill="#24A9E1"></path><path d="M332 338C333.105 338 334 337.105 334 336C334 334.895 333.105 334 332 334C330.895 334 330 334.895 330 336C330 337.105 330.895 338 332 338Z" fill="#24A9E1"></path><path d="M1198 332C1199.1 332 1200 331.105 1200 330C1200 328.895 1199.1 328 1198 328C1196.9 328 1196 328.895 1196 330C1196 331.105 1196.9 332 1198 332Z" fill="#24A9E1"></path><path d="M450 273C451.105 273 452 272.105 452 271C452 269.895 451.105 269 450 269C448.895 269 448 269.895 448 271C448 272.105 448.895 273 450 273Z" fill="#24A9E1"></path></svg>